<?xml version="1.0" encoding="UTF-8"?>
<svg id="logosandtypes_com" data-name="logosandtypes com" xmlns="http://www.w3.org/2000/svg" viewBox="0 0 150 150">
  <defs>
    <style>
      .cls-1 {
        fill: #4d6bfe;
      }

      .cls-2 {
        fill: none;
      }
    </style>
  </defs>
  <path class="cls-2" d="M0,0H150V150H0V0Z"/>
  <path class="cls-1" d="M147.87,34.82c-1.48-.72-2.11,.65-2.97,1.35-.3,.23-.54,.52-.79,.79-2.16,2.3-4.68,3.82-7.97,3.64-4.81-.27-8.92,1.24-12.55,4.92-.77-4.54-3.34-7.25-7.24-8.99-2.04-.9-4.11-1.81-5.54-3.77-1-1.4-1.27-2.96-1.77-4.49-.32-.93-.64-1.87-1.7-2.03-1.16-.18-1.61,.79-2.07,1.6-1.82,3.32-2.52,6.98-2.45,10.68,.16,8.33,3.68,14.97,10.67,19.69,.79,.54,1,1.08,.75,1.87-.48,1.63-1.04,3.21-1.54,4.83-.32,1.04-.79,1.26-1.91,.81-3.84-1.6-7.15-3.97-10.08-6.84-4.97-4.81-9.47-10.12-15.07-14.27-1.32-.97-2.63-1.87-4-2.73-5.72-5.55,.75-10.12,2.25-10.66,1.57-.56,.54-2.51-4.52-2.48-5.06,.02-9.69,1.72-15.59,3.97-.86,.34-1.77,.59-2.7,.79-5.36-1.02-10.92-1.24-16.73-.59-10.94,1.22-19.68,6.39-26.1,15.22-7.72,10.61-9.53,22.67-7.31,35.25,2.34,13.25,9.1,24.23,19.5,32.81,10.78,8.9,23.2,13.25,37.36,12.42,8.6-.5,18.18-1.65,28.99-10.79,2.72,1.35,5.58,1.9,10.33,2.3,3.65,.34,7.17-.18,9.9-.74,4.27-.9,3.97-4.86,2.43-5.58-12.51-5.83-9.76-3.45-12.26-5.37,6.36-7.52,15.94-15.33,19.68-40.65,.29-2.01,.05-3.27,0-4.9-.02-.99,.2-1.38,1.34-1.49,3.13-.36,6.17-1.22,8.97-2.75,8.1-4.43,11.37-11.7,12.14-20.41,.11-1.33-.02-2.71-1.43-3.41ZM77.25,113.27c-12.12-9.53-18-12.67-20.43-12.53-2.27,.14-1.86,2.73-1.36,4.43,.52,1.67,1.2,2.82,2.16,4.29,.66,.97,1.11,2.42-.66,3.5-3.9,2.42-10.69-.81-11.01-.97-7.9-4.65-14.5-10.79-19.16-19.19-4.49-8.08-7.1-16.76-7.54-26.01-.11-2.24,.54-3.03,2.77-3.43,2.93-.54,5.95-.66,8.88-.23,12.37,1.81,22.9,7.34,31.73,16.1,5.04,4.99,8.85,10.95,12.78,16.78,4.18,6.19,8.67,12.08,14.39,16.91,2.02,1.69,3.63,2.98,5.18,3.93-4.65,.52-12.42,.63-17.73-3.57h0Zm5.81-37.37c0-.99,.79-1.78,1.79-1.78,.23,0,.43,.04,.61,.11,.25,.09,.48,.23,.66,.43,.32,.32,.5,.77,.5,1.24,0,.99-.79,1.78-1.79,1.78s-1.77-.79-1.77-1.78h0Zm18.05,9.26c-1.16,.47-2.32,.88-3.43,.93-1.73,.09-3.61-.61-4.63-1.47-1.59-1.33-2.72-2.08-3.2-4.4-.2-.99-.09-2.53,.09-3.41,.41-1.9-.05-3.12-1.38-4.22-1.09-.9-2.47-1.15-4-1.15-.57,0-1.09-.25-1.48-.45-.64-.32-1.16-1.11-.66-2.08,.16-.32,.93-1.08,1.11-1.22,2.07-1.17,4.45-.79,6.65,.09,2.04,.84,3.59,2.37,5.81,4.54,2.27,2.62,2.68,3.34,3.97,5.31,1.02,1.54,1.95,3.12,2.59,4.92,.39,1.13-.11,2.05-1.45,2.62h0Z"/>
</svg>